<svg width="150" height="150" viewBox="0 0 150 150" fill="none" xmlns="http://www.w3.org/2000/svg">
<rect width="150" height="150" rx="15" fill="#5727EC"/>
<path d="M75 33.3333C82.7355 33.3333 90.1542 36.4063 95.624 41.8761C101.094 47.3459 104.167 54.7645 104.167 62.5C104.167 70.2355 101.094 77.6541 95.624 83.124C90.1542 88.5938 82.7355 91.6667 75 91.6667C67.2645 91.6667 59.8459 88.5938 54.3761 83.124C48.9063 77.6541 45.8334 70.2355 45.8334 62.5C45.8334 54.7645 48.9063 47.3459 54.3761 41.8761C59.8459 36.4063 67.2645 33.3333 75 33.3333ZM75 41.6667C69.4747 41.6667 64.1756 43.8616 60.2686 47.7686C56.3616 51.6756 54.1667 56.9747 54.1667 62.5C54.1667 68.0254 56.3616 73.3244 60.2686 77.2314C64.1756 81.1384 69.4747 83.3333 75 83.3333C77.7359 83.3333 80.445 82.7945 82.9726 81.7475C85.5002 80.7005 87.7969 79.166 89.7314 77.2314C91.666 75.2969 93.2005 73.0002 94.2475 70.4726C95.2945 67.945 95.8334 65.2359 95.8334 62.5C95.8334 56.9747 93.6384 51.6756 89.7314 47.7686C85.8244 43.8616 80.5254 41.6667 75 41.6667ZM75 50C78.3152 50 81.4947 51.317 83.8389 53.6612C86.1831 56.0054 87.5 59.1848 87.5 62.5C87.5 65.8152 86.1831 68.9946 83.8389 71.3388C81.4947 73.6831 78.3152 75 75 75C71.6848 75 68.5054 73.6831 66.1612 71.3388C63.817 68.9946 62.5 65.8152 62.5 62.5C62.5 59.1848 63.817 56.0054 66.1612 53.6612C68.5054 51.317 71.6848 50 75 50ZM50 116.667C47.7899 116.667 45.6703 115.789 44.1075 114.226C42.5447 112.663 41.6667 110.543 41.6667 108.333C41.6667 106.75 42.0834 105.292 42.875 104.042L50.4584 90.875C57.2768 96.7666 65.9888 100.006 75 100C84.375 100 92.9583 96.5417 99.5417 90.875L107.125 104.042C107.917 105.292 108.333 106.75 108.333 108.333C108.333 110.543 107.455 112.663 105.893 114.226C104.33 115.789 102.21 116.667 100 116.667H50Z" fill="white"/>
</svg>
